/* XPM */
static char * actions_log_to_file_xpm[] = {
"16 16 128 2",
"  	c None",
". 	c #CDCDCD",
"+ 	c #CCCCCC",
"@ 	c #C9C9C9",
"# 	c #C3C3C3",
"$ 	c #C0C0C0",
"% 	c #BDBDBD",
"& 	c #BABABA",
"* 	c #B8B8B8",
"= 	c #B6B6B6",
"- 	c #B0B0B0",
"; 	c #C6C6C6",
"> 	c #FEFAF3",
", 	c #FFFCF5",
"' 	c #FFFDF6",
") 	c #FFFDF4",
"! 	c #FFFDF3",
"~ 	c #FFFCF0",
"{ 	c #FEFBED",
"] 	c #FEF7E6",
"^ 	c #DAD2C1",
"/ 	c #818181",
"( 	c #9D8F5F",
"_ 	c #FCF7EF",
": 	c #FFFDF7",
"< 	c #FFFCF2",
"[ 	c #FEFCEF",
"} 	c #FEFBEC",
"| 	c #FEFAE9",
"1 	c #FEFAE4",
"2 	c #968F86",
"3 	c #A99C70",
"4 	c #9A8D5D",
"5 	c #FAF6EE",
"6 	c #FEFCF4",
"7 	c #9E9AAC",
"8 	c #9E9AAB",
"9 	c #9E9AAA",
"0 	c #9E99AA",
"a 	c #FDF8E2",
"b 	c #FEF8DD",
"c 	c #8E8E8E",
"d 	c #8E8256",
"e 	c #C4C4C4",
"f 	c #F8F3E9",
"g 	c #FDFAF0",
"h 	c #FDF9E9",
"i 	c #FCF9E6",
"j 	c #FDF7E0",
"k 	c #FCF7DC",
"l 	c #FCF6D8",
"m 	c #FCF6DB",
"n 	c #FEF5D6",
"o 	c #F5EFDF",
"p 	c #FBF7E4",
"q 	c #9E99A9",
"r 	c #9E99A8",
"s 	c #FCF2CC",
"t 	c #FCF0C5",
"u 	c #F4EDDB",
"v 	c #FBF5DD",
"w 	c #FCF7DB",
"x 	c #FCF5D2",
"y 	c #FCF3CE",
"z 	c #FBF3CA",
"A 	c #FBF1C5",
"B 	c #FBEEBD",
"C 	c #BBBBBB",
"D 	c #F5EDD7",
"E 	c #FBF5D6",
"F 	c #9E99A7",
"G 	c #9D99A6",
"H 	c #FBEFBE",
"I 	c #FBECB7",
"J 	c #F5EDD3",
"K 	c #FCF3CF",
"L 	c #FCF3CC",
"M 	c #FCF2C9",
"N 	c #FBF1C3",
"O 	c #FCF0C0",
"P 	c #FBEFBB",
"Q 	c #FBEEB8",
"R 	c #FBECB3",
"S 	c #F6EDD1",
"T 	c #FCF1C8",
"U 	c #9E98A6",
"V 	c #9D98A6",
"W 	c #9D98A5",
"X 	c #9D98A4",
"Y 	c #FAEDB3",
"Z 	c #FBEAAC",
"` 	c #B5B5B5",
" .	c #F7EDCD",
"..	c #FBEFC1",
"+.	c #FAEDB6",
"@.	c #FAECB3",
"#.	c #FAECB0",
"$.	c #FAEBAF",
"%.	c #F9E9B2",
"&.	c #C2B895",
"*.	c #BEB38C",
"=.	c #BEB38D",
"-.	c #C0B690",
";.	c #BDB28A",
">.	c #BAAC7A",
",.	c #B4A56E",
"'.	c #D6D1BD",
").	c #8C8C8C",
"!.	c #B7AC82",
"~.	c #F9F5E8",
"{.	c #F8F3E3",
"].	c #F6F1DE",
"^.	c #EEE3BE",
"/.	c #8F8F8F",
"(.	c #BBB6A3",
"_.	c #CEC8A9",
":.	c #585858",
"<.	c #AD9F6E",
"[.	c #ECE0B5",
"}.	c #E2D08F",
"|.	c #E4D398",
"1.	c #E0CD88",
"2.	c #919191",
"3.	c #C9C7BF",
"4.	c #7D7D7D",
"5.	c #696969",
"6.	c #6B6B6B",
"7.	c #6A6A6A",
"                                ",
"        . + @ # $ % & * = -     ",
"      ; > , ' ) ! ~ { ] ^ / (   ",
"    ; _ : : ' < [ } | 1 2 3 4   ",
"    ; 5 6 7 7 8 9 0 a b c d     ",
"    e f g h i j k l m n c       ",
"    $ o p 9 0 q r r s t c       ",
"    % u v w l x y z A B c       ",
"    C D E r r F G G H I c       ",
"    * J K L M N O P Q R c       ",
"    = S T U V W X X Y Z c       ",
"    `  ...H P +.@.#.$.%.c       ",
"  &.*.=.-.-.-.-.;.>.,.'.).      ",
"!.~.{.].].].].{.^./.(._.:.      ",
"<.[.}.|.|.|.|.|.1.2.3.4.        ",
"  5.6.7.7.7.7.7.7.7.7.          "};
