/* XPM */
static char * actions_clear_log_xpm[] = {
"16 16 97 2",
"  	c None",
". 	c #93969B",
"+ 	c #D3D9E0",
"@ 	c #8795A7",
"# 	c #8290A3",
"$ 	c #79879B",
"% 	c #CACCCD",
"& 	c #F5F5F5",
"* 	c #F6F6F6",
"= 	c #F7F7F7",
"- 	c #F7F8F8",
"; 	c #F8F8F8",
"> 	c #F9F9F8",
", 	c #F7E7D0",
"' 	c #EFAE4F",
") 	c #F8F2E9",
"! 	c #FAFBFA",
"~ 	c #F6F5F6",
"{ 	c #CBCBCB",
"] 	c #FAF9F9",
"^ 	c #F1B866",
"/ 	c #EC8E08",
"( 	c #E7BC87",
"_ 	c #FCFCFC",
": 	c #F8F7F7",
"< 	c #F9F9F9",
"[ 	c #FAFAFA",
"} 	c #FBFBFB",
"| 	c #F4C481",
"1 	c #E48400",
"2 	c #F8F2EB",
"3 	c #FDFDFC",
"4 	c #F8F9F8",
"5 	c #F8E0BE",
"6 	c #DA8111",
"7 	c #FDFDFD",
"8 	c #FEFEFD",
"9 	c #CE665F",
"0 	c #D4574E",
"a 	c #DD5950",
"b 	c #F38981",
"c 	c #F5E0DF",
"d 	c #FCFBFC",
"e 	c #F4E1CA",
"f 	c #FEFEFE",
"g 	c #F25E50",
"h 	c #C74C43",
"i 	c #C39E9D",
"j 	c #C1A0A0",
"k 	c #C55953",
"l 	c #DB574F",
"m 	c #C1B4B4",
"n 	c #FEFDFE",
"o 	c #FAE7CC",
"p 	c #DFA055",
"q 	c #F9F3EE",
"r 	c #FFFFFF",
"s 	c #E3584C",
"t 	c #BC453E",
"u 	c #CC5952",
"v 	c #EBAFAB",
"w 	c #FBFBFC",
"x 	c #F7EFF0",
"y 	c #E76158",
"z 	c #C17574",
"A 	c #FDFDFE",
"B 	c #F7D7A9",
"C 	c #D07911",
"D 	c #F6EADD",
"E 	c #D64E44",
"F 	c #DAB8B8",
"G 	c #F1564A",
"H 	c #F09E98",
"I 	c #FEFDFD",
"J 	c #F3A8A4",
"K 	c #C64440",
"L 	c #FFFEFF",
"M 	c #D54B41",
"N 	c #E8E8E9",
"O 	c #DAA2A0",
"P 	c #DF4940",
"Q 	c #E29D9B",
"R 	c #EA908D",
"S 	c #B83431",
"T 	c #E54B40",
"U 	c #CA3D35",
"V 	c #E63730",
"W 	c #EE352E",
"X 	c #8E2120",
"Y 	c #E04037",
"Z 	c #EF4236",
"` 	c #EF362F",
" .	c #AE2726",
"..	c #A12826",
"+.	c #BB2E2A",
"@.	c #BB2D2A",
"#.	c #89201F",
"                                ",
"    . . . . . . . . . . . . . . ",
"    . + + + + + + + @ + # + $ . ",
"    . % % % % % % % % % % % % . ",
"    . & & * * = - ; > , ' ) ! . ",
"    . ~ { { { { { { ] ^ / ( _ . ",
"    . = : ; < < [ [ } | 1 2 3 . ",
"    . 4 { { { { { { _ 5 6 7 8 . ",
"    9 0 a b c d d _ 3 7 e f f . ",
"  g h i j k l m { { n o p q r . ",
"s t u v w x y z 8 A f B C D r . ",
"E   F G H I J K f r L r r r r . ",
"M   N O P Q R S . . . . . . . . ",
"T U       V W X                 ",
"  Y Z     `  .                  ",
"    ..+.@.#.                    "};
