/* XPM */
static char * exit_xpm[] = {
"16 16 167 2",
"  	c None",
". 	c #F4BFB2",
"+ 	c #EC8D76",
"@ 	c #EA8167",
"# 	c #E8765B",
"$ 	c #E77054",
"% 	c #E66C4F",
"& 	c #E6694A",
"* 	c #E5694B",
"= 	c #E56546",
"- 	c #E3603F",
"; 	c #E35D3B",
"> 	c #E25431",
", 	c #D84723",
"' 	c #DE9B8A",
") 	c #EC8E77",
"! 	c #F1AE9D",
"~ 	c #EFA08C",
"{ 	c #EC9079",
"] 	c #EB8970",
"^ 	c #E9836A",
"/ 	c #E97E65",
"( 	c #E97C62",
"_ 	c #E8785D",
": 	c #E77356",
"< 	c #E66C4E",
"[ 	c #E46241",
"} 	c #DB522F",
"| 	c #BA3919",
"1 	c #EA856B",
"2 	c #EFA18D",
"3 	c #ED9780",
"4 	c #EB886F",
"5 	c #F0A897",
"6 	c #FCF0EE",
"7 	c #FFFFFF",
"8 	c #FCEDE9",
"9 	c #EE9D89",
"0 	c #E35C3A",
"a 	c #DC5330",
"b 	c #BC3E1E",
"c 	c #E8795E",
"d 	c #EC917A",
"e 	c #F2B5A6",
"f 	c #F4BDB1",
"g 	c #EA8670",
"h 	c #E9836B",
"i 	c #F4BDB0",
"j 	c #F0A895",
"k 	c #E15330",
"l 	c #BD4223",
"m 	c #E76F53",
"n 	c #EA856C",
"o 	c #F1A997",
"p 	c #ED9380",
"q 	c #E5674C",
"r 	c #E46142",
"s 	c #E35B3A",
"t 	c #E25430",
"u 	c #EB866C",
"v 	c #EC8A72",
"w 	c #DC512D",
"x 	c #BE4223",
"y 	c #E87D63",
"z 	c #FDF1EF",
"A 	c #F5C2B7",
"B 	c #E66C51",
"C 	c #E46548",
"D 	c #E2522C",
"E 	c #E24E26",
"F 	c #F5BFB0",
"G 	c #FBE6E0",
"H 	c #DC502A",
"I 	c #BF4121",
"J 	c #E56445",
"K 	c #E8755A",
"L 	c #ED9581",
"M 	c #E66C50",
"N 	c #E56748",
"O 	c #E4552C",
"P 	c #E45024",
"Q 	c #EC8364",
"R 	c #DE4E25",
"S 	c #BF3F1D",
"T 	c #E45F3F",
"U 	c #E66D50",
"V 	c #E56848",
"W 	c #E6582C",
"X 	c #E65223",
"Y 	c #EE8765",
"Z 	c #DF4C1F",
"` 	c #C03C18",
" .	c #E25835",
"..	c #E5684B",
"+.	c #FCEFEB",
"@.	c #F5C6BB",
"#.	c #E66D4E",
"$.	c #E66A49",
"%.	c #E85C2D",
"&.	c #E85624",
"*.	c #F8C7B6",
"=.	c #FBE3DB",
"-.	c #E04818",
";.	c #C23812",
">.	c #E1512C",
",.	c #EE9E8B",
"'.	c #EE9883",
").	c #E66946",
"!.	c #E76640",
"~.	c #E86337",
"{.	c #E95D2C",
"].	c #F19472",
"^.	c #F08D6B",
"/.	c #E1430F",
"(.	c #C1330B",
"_.	c #DF4822",
":.	c #E35A38",
"<.	c #E46343",
"[.	c #F2B2A2",
"}.	c #F6C8BB",
"|.	c #EE8F72",
"1.	c #EF8F6F",
"2.	c #F8CABA",
"3.	c #F6B198",
"4.	c #E9480E",
"5.	c #E13E08",
"6.	c #C12E05",
"7.	c #DE4119",
"8.	c #E1502C",
"9.	c #E35937",
"0.	c #E56444",
"a.	c #ED947E",
"b.	c #FBE8E2",
"c.	c #FBE4DC",
"d.	c #F19271",
"e.	c #E94B13",
"f.	c #E8430A",
"g.	c #E03904",
"h.	c #BE2B02",
"i.	c #D43811",
"j.	c #D9441F",
"k.	c #DA4D2A",
"l.	c #DA512F",
"m.	c #DB512E",
"n.	c #DB512C",
"o.	c #DC5129",
"p.	c #DF4F24",
"q.	c #E04B1C",
"r.	c #E04715",
"s.	c #E0420D",
"t.	c #E03A05",
"u.	c #D73201",
"v.	c #B52600",
"w.	c #DC9685",
"x.	c #B5300F",
"y.	c #B83616",
"z.	c #B8391A",
"A.	c #B7391A",
"B.	c #BB3918",
"C.	c #B93917",
"D.	c #BD3713",
"E.	c #C0350D",
"F.	c #C0320A",
"G.	c #BE2F07",
"H.	c #C02C02",
"I.	c #B62600",
"J.	c #D1907F",
"                                ",
"  . + @ # $ % & * = - ; > , '   ",
"  ) ! ~ { ] ^ / ( _ : < [ } |   ",
"  1 2 3 4 5 6 7 7 8 9 [ 0 a b   ",
"  c d ] e 7 f g h i 7 j k } l   ",
"  m n o 7 p q r s t u 7 v w x   ",
"  % y z A B C 7 7 D E F G H I   ",
"  J K 7 L M N 7 7 O P Q 7 R S   ",
"  T m 7 L U V 7 7 W X Y 7 Z `   ",
"   ...+.@.#.$.7 7 %.&.*.=.-.;.  ",
"  >.r ,.7 '.).!.~.{.].7 ^./.(.  ",
"  _.:.<.[.7 }.|.1.2.7 3.4.5.6.  ",
"  7.8.9.0.a.b.7 7 c.d.e.f.g.h.  ",
"  i.j.k.l.m.n.o.p.q.r.s.t.u.v.  ",
"  w.x.y.z.A.B.C.D.E.F.G.H.I.J.  ",
"                                "};
