/* XPM */
static char * file_selected_xpm[] = {
"16 16 71 1",
" 	c None",
".	c #C0C0C0",
"+	c #BFBFBF",
"@	c #FCFBFB",
"#	c #FCFCFB",
"$	c #FDFDFC",
"%	c #FEFEFD",
"&	c #CACACA",
"*	c #BABABA",
"=	c #FBFBFA",
"-	c #6365C0",
";	c #D0D0EA",
">	c #6366C0",
",	c #D0D1EB",
"'	c #6466C0",
")	c #C5C5C5",
"!	c #F6F6F6",
"~	c #BDBDBD",
"{	c #FAFAF9",
"]	c #B8B8B8",
"^	c #BCBCBC",
"/	c #FAF9F8",
"(	c #6365BF",
"_	c #FBFAFA",
":	c #E6E5E5",
"<	c #E0DFDF",
"[	c #F9F8F7",
"}	c #CECEE9",
"|	c #CFCFE9",
"1	c #F8F7F6",
"2	c #F9F9F8",
"3	c #FAF9F9",
"4	c #FCFBFA",
"5	c #FDFCFC",
"6	c #B5B5B5",
"7	c #F7F6F6",
"8	c #CCCCE6",
"9	c #6264BF",
"0	c #CCCDE7",
"a	c #B3B3B3",
"b	c #F6F5F5",
"c	c #6264BE",
"d	c #FBFAF9",
"e	c #898989",
"f	c #878787",
"g	c #B1B1B1",
"h	c #F6F4F4",
"i	c #F7F6F5",
"j	c #F8F8F7",
"k	c #3CE820",
"l	c #ADADAD",
"m	c #F5F3F3",
"n	c #C9C9E4",
"o	c #CBCBE5",
"p	c #F9F8F8",
"q	c #7F7F7F",
"r	c #3EE823",
"s	c #D7D7D7",
"t	c #F5F4F4",
"u	c #F6F5F4",
"v	c #EFEEEE",
"w	c #BDBCBC",
"x	c #5DE248",
"y	c #9C9C9C",
"z	c #A6A6A6",
"A	c #CBCBCB",
"B	c #DEDEDE",
"C	c #B2B2B2",
"D	c #9F9F9F",
"E	c #AFAFAF",
"F	c #888888",
".........+      ",
".@#$$%%#%&*     ",
"+=-#;>,%')!*    ",
"~{-@-$>%'*]]*   ",
"^/(_-#>$'%:<*   ",
"*[({}-|$>$%%]   ",
"]1[23_4#5$%%]   ",
"678903-=|-;%6   ",
"abc192(deeeefeee",
"ghci9j93ekkkkkke",
"lmnco19pqkkkkrke",
"lsmtuivwekkxkkke",
"yyyzABCDekkkkkke",
"    EyE ekkkkkke",
"        ekkkkkke",
"        eeeFeeee"};
