/* XPM */
static char * file_logoff_xpm[] = {
"16 16 85 1",
" 	c None",
".	c #D28AA2",
"+	c #CE86A0",
"@	c #C6839F",
"#	c #C27F9C",
"$	c #BA7995",
"%	c #B77695",
"&	c #B37292",
"*	c #AF6F90",
"=	c #AB6B8C",
"-	c #A36689",
";	c #A26285",
">	c #9D6185",
",	c #995D82",
"'	c #F0C2C7",
")	c #EDBCC2",
"!	c #E8B3BE",
"~	c #E4AAB7",
"{	c #DD9EB0",
"]	c #D998AB",
"^	c #D591A5",
"/	c #FFFFFF",
"(	c #FFFEFF",
"_	c #FFFDFE",
":	c #FEFCFD",
"<	c #FDFAFB",
"[	c #FCF9FA",
"}	c #FBF7F8",
"|	c #FAF5F7",
"1	c #F9F4F6",
"2	c #F9F2F4",
"3	c #FDFBFC",
"4	c #F0DDE3",
"5	c #BC7493",
"6	c #B6809B",
"7	c #AF7B97",
"8	c #DFCAD4",
"9	c #F8F1F3",
"0	c #F7EFF2",
"a	c #93577D",
"b	c #FDFCFC",
"c	c #C47A95",
"d	c #F2C7CC",
"e	c #9D4E74",
"f	c #AC6F90",
"g	c #D8BDCA",
"h	c #F6EDF0",
"i	c #8C5278",
"j	c #A4768D",
"k	c #F1D9DD",
"l	c #B75F84",
"m	c #F6EBEF",
"n	c #864A73",
"o	c #BE7A99",
"p	c #FCF8F9",
"q	c #CC7D9B",
"r	c #C36D91",
"s	c #F4EAED",
"t	c #873B6D",
"u	c #FBF8F9",
"v	c #BC6389",
"w	c #773458",
"x	c #F3E6EB",
"y	c #B26484",
"z	c #D59DB2",
"A	c #C97597",
"B	c #F3E5EA",
"C	c #822D5C",
"D	c #FCF7F8",
"E	c #C47594",
"F	c #AA6386",
"G	c #F2E4E9",
"H	c #78205C",
"I	c #4C2942",
"J	c #F1E1E7",
"K	c #A7698C",
"L	c #D4859F",
"M	c #F5EAEE",
"N	c #F4E7EC",
"O	c #F1E2E8",
"P	c #F0E0E6",
"Q	c #711454",
"R	c #F4E8EB",
"S	c #6C0A4E",
"T	c #650148",
".++@##$%&*=-;>,,",
".''))!!~~{]]^^.,",
".'///(_:<[}|12.,",
"+'//_:34567890.a",
"@)(__b4cd6efgh+i",
"#)_:3<cd+jkl-m@n",
"o!:3<p+~qqrens#t",
"$~3[upe.rvlwix$t",
"&~[upyzAleew7B&C",
"*{DpE!E]Fww7GG*H",
"={|E';CCIgxGGJKH",
"K]1;LefMNxGOJP-Q",
"-^2;ewRRBGGJPP>Q",
">^0hMsNBGGJPPP,S",
">..+@##o%&fK-;>T",
",,,ainttCCHHQSST"};
