/* XPM */
static char * file_xpm[] = {
"16 16 68 1",
" 	c None",
".	c #C0C0C0",
"+	c #BFBFBF",
"@	c #FCFBFB",
"#	c #FCFCFB",
"$	c #FDFDFC",
"%	c #FEFEFD",
"&	c #CACACA",
"*	c #BABABA",
"=	c #FBFBFA",
"-	c #6365C0",
";	c #D0D0EA",
">	c #6366C0",
",	c #D0D1EB",
"'	c #6466C0",
")	c #C5C5C5",
"!	c #F6F6F6",
"~	c #BDBDBD",
"{	c #FAFAF9",
"]	c #B8B8B8",
"^	c #BCBCBC",
"/	c #FAF9F8",
"(	c #6365BF",
"_	c #FBFAFA",
":	c #E6E5E5",
"<	c #E0DFDF",
"[	c #F9F8F7",
"}	c #CECEE9",
"|	c #CFCFE9",
"1	c #F8F7F6",
"2	c #F9F9F8",
"3	c #FAF9F9",
"4	c #FCFBFA",
"5	c #FDFCFC",
"6	c #B5B5B5",
"7	c #F7F6F6",
"8	c #CCCCE6",
"9	c #6264BF",
"0	c #CCCDE7",
"a	c #B3B3B3",
"b	c #F6F5F5",
"c	c #6264BE",
"d	c #FBFAF9",
"e	c #898989",
"f	c #B1B1B1",
"g	c #F6F4F4",
"h	c #F7F6F5",
"i	c #F8F8F7",
"j	c #ADADAD",
"k	c #F5F3F3",
"l	c #C9C9E4",
"m	c #CBCBE5",
"n	c #F9F8F8",
"o	c #CECFE9",
"p	c #D7D7D7",
"q	c #F5F4F4",
"r	c #F6F5F4",
"s	c #F8F6F6",
"t	c #F8F7F7",
"u	c #F7F7F7",
"v	c #ACACAC",
"w	c #9C9C9C",
"x	c #A6A6A6",
"y	c #CBCBCB",
"z	c #DEDEDE",
"A	c #C2C2C2",
"B	c #AFAFAF",
"C	c #A9A9A9",
".........+      ",
".@#$$%%#%&*     ",
"+=-#;>,%')!*    ",
"~{-@-$>%'*]]*   ",
"^/(_-#>$'%:<*   ",
"*[({}-|$>$%%]   ",
"]1[23_4#5$%%]   ",
"678903-=|-;%6   ",
"abc192(deeeeeeee",
"fgch9i93e=-#f  e",
"jklcm19ne(o@j  e",
"jpkqrhsteu{=v  e",
"wwwxyzA+e+{=f  e",
"    BwB e +=j  e",
"        e  Cv  e",
"        eeeeeeee"};
