/* XPM */
static char * folder_empty_xpm[] = {
"16 16 88 1",
" 	c None",
".	c #7A7A7A",
"+	c #C0C0C0",
"@	c #C1C1C1",
"#	c #C2C2C2",
"$	c #C3C3C3",
"%	c #B0B0B0",
"&	c #888888",
"*	c #FEFEFE",
"=	c #FFFFFF",
"-	c #FBFBFB",
";	c #B2B2B2",
">	c #969696",
",	c #959595",
"'	c #8A8A8A",
")	c #686868",
"!	c #868686",
"~	c #F8F8F8",
"{	c #F9F9F9",
"]	c #FCFCFC",
"^	c #D7D7D7",
"/	c #6D6D6D",
"(	c #F7F7F7",
"_	c #FAFAFA",
":	c #F5F5F5",
"<	c #F3F3F3",
"[	c #D4D4D4",
"}	c #6F6F6F",
"|	c #F6F6F6",
"1	c #FDFDFD",
"2	c #E2E2E2",
"3	c #797979",
"4	c #E6E6E6",
"5	c #AEAEAE",
"6	c #ACACAC",
"7	c #ABABAB",
"8	c #AAAAAA",
"9	c #A0A0A0",
"0	c #6E6E6E",
"a	c #858585",
"b	c #F4F4F4",
"c	c #9F9F9F",
"d	c #AFAFAF",
"e	c #CACACA",
"f	c #CECECE",
"g	c #CFCFCF",
"h	c #CCCCCC",
"i	c #C7C7C7",
"j	c #BCBCBC",
"k	c #BBBBBB",
"l	c #B6B6B6",
"m	c #ADADAD",
"n	c #999999",
"o	c #DFDFDF",
"p	c #E7E7E7",
"q	c #ECECEC",
"r	c #EFEFEF",
"s	c #EAEAEA",
"t	c #E3E3E3",
"u	c #DBDBDB",
"v	c #D5D5D5",
"w	c #CDCDCD",
"x	c #989898",
"y	c #878787",
"z	c #8F8F8F",
"A	c #C6C6C6",
"B	c #DCDCDC",
"C	c #E0E0E0",
"D	c #E5E5E5",
"E	c #898989",
"F	c #A7A7A7",
"G	c #A5A5A5",
"H	c #D6D6D6",
"I	c #DADADA",
"J	c #D0D0D0",
"K	c #6B6B6B",
"L	c #909090",
"M	c #C9C9C9",
"N	c #D1D1D1",
"O	c #D8D8D8",
"P	c #8D8D8D",
"Q	c #737373",
"R	c #7F7F7F",
"S	c #808080",
"T	c #818181",
"U	c #828282",
"V	c #7C7C7C",
"W	c #696969",
".+@#$%          ",
"&***=-;>>,,')   ",
"!~{---**]{-^/   ",
"!({_-_{~:<:[}   ",
"!|~-***1-~{23   ",
"!:{4566778890   ",
"ab<cdefghi@jklm ",
"a|#nopqrstuvwex ",
"y4zABCD4EEEEEEEE",
"!FG[HBoCEI[J@3 E",
"KLMNvIBBEO[hP  E",
" QRRSTUUETTVW  E",
"        E      E",
"        E      E",
"        E      E",
"        EEEEEEEE"};
