/* XPM */
static char * folder_selected_partial_xpm[] = {
"16 16 132 2",
"  	c None",
". 	c #222222",
"+ 	c #969896",
"@ 	c #989A97",
"# 	c #9A9C97",
"$ 	c #9E9F9A",
"% 	c #7B7D7A",
"& 	c #383939",
"* 	c #FBFFFC",
"= 	c #FFFFFD",
"- 	c #FFFFFE",
"; 	c #FFFFFF",
"> 	c #FCFDF5",
", 	c #7F807D",
"' 	c #505250",
") 	c #4F5150",
"! 	c #4D5050",
"~ 	c #4D5152",
"{ 	c #3A3D3E",
"] 	c #040404",
"^ 	c #363737",
"/ 	c #F1F5F1",
"( 	c #F7F9F2",
"_ 	c #FDFCF3",
": 	c #FFFEF4",
"< 	c #FEFDF4",
"[ 	c #FFFFFB",
"} 	c #FCFFFC",
"| 	c #F7FDFB",
"1 	c #F2FAFA",
"2 	c #F2FDFF",
"3 	c #B6BFC3",
"4 	c #0B0B0C",
"5 	c #F0F5F1",
"6 	c #F6F8F2",
"7 	c #FBFBF3",
"8 	c #ECF2F0",
"9 	c #E7EFEF",
"0 	c #E7F1F5",
"a 	c #B1BBBF",
"b 	c #0F0F10",
"c 	c #363736",
"d 	c #EFF3F0",
"e 	c #F3F6F1",
"f 	c #F9FCF5",
"g 	c #FEFFFD",
"h 	c #F9FFFC",
"i 	c #F5FCFB",
"j 	c #EFF9FA",
"k 	c #EFFAFE",
"l 	c #C6D2D8",
"m 	c #1F2122",
"n 	c #353636",
"o 	c #EBF1F0",
"p 	c #F3F7F5",
"q 	c #D5D8D4",
"r 	c #7A7B77",
"s 	c #767775",
"t 	c #757775",
"u 	c #737574",
"v 	c #717474",
"w 	c #6F7374",
"x 	c #6E7475",
"y 	c #5D6264",
"z 	c #0E0E0E",
"A 	c #343636",
"B 	c #E8F1F1",
"C 	c #E9EFEE",
"D 	c #5D6061",
"E 	c #657C8F",
"F 	c #91A9BE",
"G 	c #9BB0C1",
"H 	c #9EB3C2",
"I 	c #96ACBE",
"J 	c #8AA3B9",
"K 	c #7D99B2",
"L 	c #7190AD",
"M 	c #6C8FAF",
"N 	c #6087AC",
"O 	c #4E769C",
"P 	c #333536",
"Q 	c #EBF4F7",
"R 	c #989D9C",
"S 	c #465664",
"T 	c #ABCCE9",
"U 	c #BCD9F1",
"V 	c #CAE4F7",
"W 	c #CFE7FA",
"X 	c #C4DEF4",
"Y 	c #B4D2ED",
"Z 	c #A4C7E5",
"` 	c #94BADD",
" .	c #84AED5",
"..	c #72A1C9",
"+.	c #39566E",
"@.	c #353739",
"#.	c #CFD8DC",
"$.	c #3E464D",
"%.	c #81A2C0",
"&.	c #A6C8E5",
"*.	c #B1CFE8",
"=.	c #BCD7EC",
"-.	c #BEDAEE",
";.	c #898989",
">.	c #878787",
",.	c #343839",
"'.	c #696F71",
").	c #4F6A83",
"!.	c #92BADE",
"~.	c #9ABEDD",
"{.	c #A6C6E2",
"].	c #ADCCE6",
"^.	c #AFCDE7",
"/.	c #3CE820",
"(.	c #090909",
"_.	c #364859",
":.	c #79A5D0",
"<.	c #8AB4DC",
"[.	c #95BCE0",
"}.	c #9EC3E4",
"|.	c #A3C7E7",
"1.	c #A4C8E8",
"2.	c #7F7F7F",
"3.	c #0F161D",
"4.	c #1F2B36",
"5.	c #202B35",
"6.	c #232D36",
"7.	c #252F37",
"8.	c #252D36",
"9.	c #383E43",
"0.	c #3EE823",
"a.	c #888888",
". + @ # $ %                     ",
"& * = - ; > , ' ) ! ~ { ]       ",
"^ / ( _ : < [ } | 1 2 3 4       ",
"^ 5 6 7 < 7 6 / 8 9 0 a b       ",
"c d e f = = g h i j k l m       ",
"n o p q r s t u v w x y z       ",
"A B C D E F G H I J K L M N O   ",
"P Q R S T U V W X Y Z `  ...+.  ",
"@.#.$.%.&.*.=.-.;.;.;.;.>.;.;.;.",
",.'.).!.~.{.].^.;././././././.;.",
"(._.:.<.[.}.|.1.2./././././.  ;.",
"  3.4.5.6.7.8.9.;./././.0.    ;.",
"              >.;./././.      ;.",
"                ;././.        ;.",
"                ;./.          ;.",
"                ;.;.;.a.;.;.;.;."};
