/* XPM */
static char * help_xpm[] = {
"16 16 138 2",
"  	c None",
". 	c #727172",
"+ 	c #858587",
"@ 	c #A0A1A5",
"# 	c #B7B9BE",
"$ 	c #C8C9D0",
"% 	c #97979B",
"& 	c #BBBEC7",
"* 	c #9AABD6",
"= 	c #6482D8",
"- 	c #426AD4",
"; 	c #4269D0",
"> 	c #5978CA",
", 	c #899CCB",
"' 	c #B4B8C4",
") 	c #BCC2D2",
"! 	c #6F8CD9",
"~ 	c #3D69D9",
"{ 	c #7C99E4",
"] 	c #B2C3F0",
"^ 	c #B5C4EF",
"/ 	c #93A8E1",
"( 	c #4367C1",
"_ 	c #5B78BE",
": 	c #A9B1C7",
"< 	c #BDBFC7",
"[ 	c #738ED7",
"} 	c #3763D4",
"| 	c #4A70D6",
"1 	c #EBEFFA",
"2 	c #FDFCF9",
"3 	c #FFFFFE",
"4 	c #FFFFFF",
"5 	c #C2CBE5",
"6 	c #2B51AD",
"7 	c #5A74B5",
"8 	c #B3B7C2",
"9 	c #A1AFD4",
"0 	c #3B66D1",
"a 	c #3A63CB",
"b 	c #4369CC",
"c 	c #6D88CE",
"d 	c #4667B8",
"e 	c #5F7DC7",
"f 	c #F2F3F8",
"g 	c #F9F8F9",
"h 	c #4361AE",
"i 	c #2147A0",
"j 	c #8293BA",
"k 	c #6A85CA",
"l 	c #3A62C9",
"m 	c #3960C4",
"n 	c #365DBE",
"o 	c #2A52B5",
"p 	c #1642AC",
"q 	c #2F52AB",
"r 	c #DEDCDF",
"s 	c #D6D9E1",
"t 	c #24479A",
"u 	c #173D98",
"v 	c #4E68A7",
"w 	c #4366BC",
"x 	c #365EC0",
"y 	c #345BBB",
"z 	c #284FB1",
"A 	c #1741A6",
"B 	c #2249A4",
"C 	c #9EA6BC",
"D 	c #DAD6D1",
"E 	c #647BB0",
"F 	c #153C95",
"G 	c #224599",
"H 	c #30509D",
"I 	c #4162B3",
"J 	c #3057B7",
"K 	c #2049AC",
"L 	c #123CA1",
"M 	c #07329B",
"N 	c #8E9BC0",
"O 	c #DED8D2",
"P 	c #6B7DAC",
"Q 	c #23459B",
"R 	c #2D4FA2",
"S 	c #2F50A2",
"T 	c #3C5AA5",
"U 	c #627AB6",
"V 	c #1D45A6",
"W 	c #113B9E",
"X 	c #0F3899",
"Y 	c #153C99",
"Z 	c #97A3C3",
"` 	c #A7AEC4",
" .	c #284A9E",
"..	c #3656A9",
"+.	c #3C5AAE",
"@.	c #3B5AB0",
"#.	c #6177B5",
"$.	c #94A0BD",
"%.	c #0E3797",
"&.	c #0F3796",
"*.	c #103893",
"=.	c #1A3F96",
"-.	c #536AA6",
";.	c #5C73AD",
">.	c #3655AC",
",.	c #405DB6",
"'.	c #405DBA",
").	c #3F5BBB",
"!.	c #8D99C1",
"~.	c #BBBDC4",
"{.	c #4C649D",
"].	c #0D3490",
"^.	c #103590",
"/.	c #3F5DA1",
"(.	c #C3C6CD",
"_.	c #C9CDD7",
":.	c #566EBC",
"<.	c #3754BE",
"[.	c #3D5AC4",
"}.	c #6376C2",
"|.	c #B7B9C5",
"1.	c #B8BCC7",
"2.	c #4B629A",
"3.	c #163A8F",
"4.	c #3D5BA4",
"5.	c #BBC0D1",
"6.	c #D0D3DF",
"7.	c #4B63BE",
"8.	c #324EC6",
"9.	c #6174C7",
"0.	c #B0B6CC",
"a.	c #939EB9",
"b.	c #5F73AA",
"c.	c #4860A5",
"d.	c #4C62AD",
"e.	c #6173BF",
"f.	c #919CCB",
"g.	c #B8BBC6",
"          . . . . . .           ",
"      . + @ # $ $ # @ + .       ",
"    . % & * = - ; > , ' % .     ",
"  . % ) ! ~ { ] ^ / ( _ : % .   ",
"  + < [ } | 1 2 3 4 5 6 7 8 +   ",
". @ 9 0 a b c d e f g h i j @ . ",
". # k l m n o p q r s t u v # . ",
". $ w x y z A B C D E F G H $ . ",
". $ I J K L M N O P Q R S T $ . ",
". # U V W X Y Z `  ...+.@.#.# . ",
". @ $.%.&.*.=.-.;.>.,.'.).!.@ . ",
"  + ~.{.].^./.(._.:.<.[.}.|.+   ",
"  . % 1.2.3.4.5.6.7.8.9.0.% .   ",
"    . % ~.a.b.c.d.e.f.g.% .     ",
"      . + @ # $ $ # @ + .       ",
"          . . . . . .           "};
