/* XPM */
static char * info_xpm[] = {
"16 16 119 2",
"  	c None",
". 	c #6BAFD4",
"+ 	c #6EB7DC",
"@ 	c #68AED4",
"# 	c #5FAAD3",
"$ 	c #83D2F5",
"% 	c #8DDDFB",
"& 	c #88DAF9",
"* 	c #86DAF9",
"= 	c #89DAF9",
"- 	c #90DDF9",
"; 	c #96E0FB",
"> 	c #86D3F5",
", 	c #55A6D1",
"' 	c #75C6EC",
") 	c #8ADCF9",
"! 	c #8CDBF8",
"~ 	c #8FDCF8",
"{ 	c #8FDDF9",
"] 	c #DCEBF0",
"^ 	c #DCEAF0",
"/ 	c #98E0FA",
"( 	c #9FE1F9",
"_ 	c #A2E2F9",
": 	c #A4E4FA",
"< 	c #6DC2EC",
"[ 	c #61B9E5",
"} 	c #94DEF8",
"| 	c #97DFF9",
"1 	c #9BE0FA",
"2 	c #9CE0F9",
"3 	c #E9F9FE",
"4 	c #EAF9FE",
"5 	c #A7E4F9",
"6 	c #ADE6FB",
"7 	c #B1E7FB",
"8 	c #B4E8FB",
"9 	c #B9EAFB",
"0 	c #55B4E3",
"a 	c #8DDEFB",
"b 	c #9EE1F9",
"c 	c #A8E4FA",
"d 	c #AFE6FA",
"e 	c #AFE7FB",
"f 	c #C9E4EF",
"g 	c #C7E4EF",
"h 	c #A3E3FA",
"i 	c #AAE5FA",
"j 	c #B5E8FB",
"k 	c #C7EEFC",
"l 	c #CFF0FC",
"m 	c #A8E6FC",
"n 	c #2998CF",
"o 	c #ABE6FB",
"p 	c #AFE7FA",
"q 	c #8DDCF8",
"r 	c #71D3F6",
"s 	c #5BCCF5",
"t 	c #47C6F4",
"u 	c #F6FCFE",
"v 	c #F1FBFE",
"w 	c #49C7F4",
"x 	c #51C9F5",
"y 	c #50C9F5",
"z 	c #4EC8F5",
"A 	c #5DCDF5",
"B 	c #7AD7F8",
"C 	c #2896CD",
"D 	c #2091CB",
"E 	c #74D4F7",
"F 	c #46C4F4",
"G 	c #47C4F4",
"H 	c #49C5F4",
"I 	c #40C2F3",
"J 	c #F4FBFE",
"K 	c #F0FAFD",
"L 	c #40C2F4",
"M 	c #4AC6F5",
"N 	c #39BBF4",
"O 	c #3ABBF4",
"P 	c #3BBBF4",
"Q 	c #31B7F4",
"R 	c #F3FBFD",
"S 	c #EFF9FD",
"T 	c #38BBF3",
"U 	c #1A8FD0",
"V 	c #2EB3F5",
"W 	c #2CADF4",
"X 	c #21A9F3",
"Y 	c #EFF9FE",
"Z 	c #22A9F3",
"` 	c #2FB3F5",
" .	c #198DCE",
"..	c #148CD3",
"+.	c #21A9F5",
"@.	c #20A1F4",
"#.	c #1F9FF4",
"$.	c #1B9DF4",
"%.	c #92CFF9",
"&.	c #8CCCF9",
"*.	c #1C9DF4",
"=.	c #20A2F4",
"-.	c #21A9F4",
";.	c #148BD1",
">.	c #1391DC",
",.	c #169EF1",
"'.	c #1597F4",
").	c #128FF4",
"!.	c #1397F5",
"~.	c #179EF5",
"{.	c #169EF0",
"].	c #1390DC",
"^.	c #1798F3",
"/.	c #0F95F5",
"(.	c #0A78C7",
"_.	c #2383C4",
":.	c #0D9FF4",
"<.	c #0777C9",
"[.	c #1597D9",
"                                ",
"            . + + @             ",
"      # $ % & * = - ; > ,       ",
"    ' ) ! ~ { ] ^ / ( _ : <     ",
"  [ - } | 1 2 3 4 5 6 7 8 9 0   ",
"  a b _ c d e f g h i j k l m   ",
"n o p q r s t u v w x y z A B C ",
"D E F G H H I J K L H H H H M   ",
"  N O P P P Q R S Q P P P P T   ",
"  U V W W W X J Y Z W W W `  .  ",
"    ..+.@.#.$.%.&.*.#.=.-.;.    ",
"        >.,.'.).!.~.{.].        ",
"            ^./.(.              ",
"          _.:.<.                ",
"          [.                    ",
"                                "};
