/* XPM */
static char * langs_xpm[] = {
"16 16 17 1",
" 	c None",
".	c #41A4DE",
"+	c #40A5DE",
"@	c #43A8E1",
"#	c #42A2DA",
"$	c #3AA0DB",
"%	c #2F9BDA",
"&	c #2E99D7",
"*	c #3AA0D9",
"=	c #2F98D3",
"-	c #30A5E5",
";	c #2E9EDB",
">	c #2D9AD9",
",	c #2E97D3",
"'	c #2D97D3",
")	c #2D93CE",
"!	c #000000",
"    .+@         ",
"   #  $%        ",
"       &        ",
"     *=-;>      ",
"      ,')       ",
" !!!!           ",
"    !    !      ",
" !!!!    ! !!   ",
" !  !  !!!!     ",
" !  !    !  !   ",
" !! !    !!!!   ",
"       !!!   !! ",
"       ! ! !  ! ",
"       ! !!   ! ",
"       !!!  !!  ",
"                "};
