/* XPM */
static char * menu_options_xpm[] = {
"16 16 112 2",
"  	c None",
". 	c #8DAAC4",
"+ 	c #8DACC4",
"@ 	c #93B1C9",
"# 	c #92B1CC",
"$ 	c #A3BCD3",
"% 	c #9AB6CD",
"& 	c #8CA7C0",
"* 	c #9DB7D0",
"= 	c #C2D5E6",
"- 	c #D9E6F2",
"; 	c #DDEAF8",
"> 	c #C2D6EA",
", 	c #A3BBD1",
"' 	c #91A5B6",
") 	c #99B6CD",
"! 	c #A7C0D6",
"~ 	c #D4E2F0",
"{ 	c #E3EBF6",
"] 	c #C1D2E2",
"^ 	c #98B1C8",
"/ 	c #96B1C7",
"( 	c #AFC5D6",
"_ 	c #ACC2D4",
": 	c #97B2CC",
"< 	c #829FBA",
"[ 	c #6E8AA6",
"} 	c #98B4CC",
"| 	c #CFDDEC",
"1 	c #E8F0F9",
"2 	c #A2B7C7",
"3 	c #607D96",
"4 	c #8BA6C0",
"5 	c #AEC2D5",
"6 	c #B5C9D7",
"7 	c #8DA6C1",
"8 	c #6C869F",
"9 	c #D3E1EE",
"0 	c #C3D6E3",
"a 	c #597892",
"b 	c #95B1C9",
"c 	c #ABC0D1",
"d 	c #8CA8C0",
"e 	c #9CB8CF",
"f 	c #ACC5D9",
"g 	c #CBDDED",
"h 	c #94ACC4",
"i 	c #8F9297",
"j 	c #9BB6CD",
"k 	c #ADC4DA",
"l 	c #CBDDEF",
"m 	c #9BB4C9",
"n 	c #D3D9E0",
"o 	c #74849A",
"p 	c #D1D7DF",
"q 	c #C2D5E8",
"r 	c #BDD1E1",
"s 	c #809BB4",
"t 	c #CACCCD",
"u 	c #8CAAC3",
"v 	c #B4C9DD",
"w 	c #CEDEEF",
"x 	c #BDCDE0",
"y 	c #FFFFFF",
"z 	c #FEFFFE",
"A 	c #FEFEFE",
"B 	c #FDFDFD",
"C 	c #E3ECF2",
"D 	c #A2D7E5",
"E 	c #C0DDE9",
"F 	c #F4F3F4",
"G 	c #F2F2F3",
"H 	c #80A2BD",
"I 	c #85A5C0",
"J 	c #A9C0D5",
"K 	c #C9DAEB",
"L 	c #F8F9F8",
"M 	c #FCFCFD",
"N 	c #98C9DF",
"O 	c #2096C4",
"P 	c #F7F7F7",
"Q 	c #F3F3F3",
"R 	c #F2F2F2",
"S 	c #89A6BE",
"T 	c #9BB4CC",
"U 	c #7AB0CE",
"V 	c #3890BF",
"W 	c #0783B7",
"X 	c #95C2DB",
"Y 	c #F6F7F6",
"Z 	c #F3F2F2",
"` 	c #F1F1F2",
" .	c #82A1BC",
"..	c #7A9AB6",
"+.	c #ADC4D2",
"@.	c #2283B7",
"#.	c #0A84B9",
"$.	c #4795C0",
"%.	c #F2F4F6",
"&.	c #9A98AB",
"*.	c #9997AA",
"=.	c #D4D3DA",
"-.	c #FFFEFF",
";.	c #CCDDE7",
">.	c #3184B0",
",.	c #A6C5D6",
"'.	c #F8F7F7",
").	c #F4F4F5",
"!.	c #F1F1F1",
"~.	c #F1F0F1",
"{.	c #F4F4F4",
"].	c #F0F0F0",
"            . +                 ",
"      @ #   $ %   &             ",
"      * = - ; > , '             ",
"  ) ! ~ { ] ^ / ( _ : < [       ",
"  } | 1 2 3     4 5 6 7 8       ",
"    9 0 a         b c d         ",
"e f g h   i i i i i i i i i i i ",
"j k l m   i n n n n n n o p o i ",
"    q r s i t t t t t t t t t i ",
"  u v w x i y z A B C D E F G i ",
"  H I J K i y L L M N O P Q R i ",
"      S T i y U V L W X Y Z ` i ",
"       ...i y +.@.#.$.%.&.*.=.i ",
"          i -.L ;.>.,.'.).!.~.i ",
"          i A L L L L P {.!.].i ",
"          i i i i i i i i i i i "};
