/* XPM */
static char * open_xpm[] = {
"16 16 148 2",
"  	c None",
". 	c #222222",
"+ 	c #969896",
"@ 	c #989A97",
"# 	c #9A9C97",
"$ 	c #9E9F9A",
"% 	c #7B7D7A",
"& 	c #383939",
"* 	c #FBFFFC",
"= 	c #FFFFFD",
"- 	c #FFFFFE",
"; 	c #FFFFFF",
"> 	c #FCFDF5",
", 	c #7F807D",
"' 	c #505250",
") 	c #4F5150",
"! 	c #4D5050",
"~ 	c #4D5152",
"{ 	c #3A3D3E",
"] 	c #040404",
"^ 	c #363737",
"/ 	c #F1F5F1",
"( 	c #F7F9F2",
"_ 	c #FDFCF3",
": 	c #FFFEF4",
"< 	c #FEFDF4",
"[ 	c #FFFFFB",
"} 	c #FCFFFC",
"| 	c #F7FDFB",
"1 	c #F2FAFA",
"2 	c #F2FDFF",
"3 	c #B6BFC3",
"4 	c #0B0B0C",
"5 	c #F0F5F1",
"6 	c #F6F8F2",
"7 	c #FBFBF3",
"8 	c #ECF2F0",
"9 	c #E7EFEF",
"0 	c #E7F1F5",
"a 	c #B1BBBF",
"b 	c #0F0F10",
"c 	c #363736",
"d 	c #EFF3F0",
"e 	c #F3F6F1",
"f 	c #F9FCF5",
"g 	c #FEFFFD",
"h 	c #F9FFFC",
"i 	c #F5FCFB",
"j 	c #EFF9FA",
"k 	c #EFFAFE",
"l 	c #C6D2D8",
"m 	c #1F2122",
"n 	c #353636",
"o 	c #EBF1F0",
"p 	c #F3F7F5",
"q 	c #D5D8D4",
"r 	c #7A7B77",
"s 	c #767775",
"t 	c #757775",
"u 	c #737574",
"v 	c #717474",
"w 	c #6F7374",
"x 	c #6E7475",
"y 	c #5D6264",
"z 	c #0E0E0E",
"A 	c #343636",
"B 	c #E8F1F1",
"C 	c #E9EFEE",
"D 	c #5D6061",
"E 	c #657C8F",
"F 	c #91A9BE",
"G 	c #9BB0C1",
"H 	c #9EB3C2",
"I 	c #96ACBE",
"J 	c #8AA3B9",
"K 	c #7D99B2",
"L 	c #7190AD",
"M 	c #6C8FAF",
"N 	c #6087AC",
"O 	c #4F779E",
"P 	c #333536",
"Q 	c #EBF4F7",
"R 	c #989D9C",
"S 	c #465664",
"T 	c #ABCCE9",
"U 	c #BCD9F1",
"V 	c #CAE4F7",
"W 	c #CFE7FA",
"X 	c #C4DEF4",
"Y 	c #B4D2ED",
"Z 	c #A4C7E5",
"` 	c #94BADD",
" .	c #84AED5",
"..	c #78A7D5",
"+.	c #39546F",
"@.	c #353739",
"#.	c #CFD8DC",
"$.	c #3E464D",
"%.	c #81A2C0",
"&.	c #A6C8E5",
"*.	c #B1CFE8",
"=.	c #BCD7EC",
"-.	c #BEDAEE",
";.	c #B7D3EB",
">.	c #ABC9E5",
",.	c #9DBFDF",
"'.	c #8EB4D7",
").	c #82ACD5",
"!.	c #56789A",
"~.	c #080B0F",
"{.	c #343839",
"].	c #696F71",
"^.	c #4F6A83",
"/.	c #92BADE",
"(.	c #9ABEDD",
"_.	c #A6C6E2",
":.	c #ADCCE6",
"<.	c #AFCDE7",
"[.	c #AACAE4",
"}.	c #A1C2E1",
"|.	c #95B9DB",
"1.	c #8AB2D7",
"2.	c #7299C0",
"3.	c #172029",
"4.	c #090909",
"5.	c #364859",
"6.	c #79A5D0",
"7.	c #8AB4DC",
"8.	c #95BCE0",
"9.	c #9EC3E4",
"0.	c #A3C7E7",
"a.	c #A4C8E8",
"b.	c #A2C6E6",
"c.	c #9AC0E2",
"d.	c #91B9DF",
"e.	c #81ACD4",
"f.	c #314354",
"g.	c #0F161D",
"h.	c #1F2B36",
"i.	c #202B35",
"j.	c #232D36",
"k.	c #252F37",
"l.	c #262F38",
"m.	c #263038",
"n.	c #242E37",
"o.	c #232D37",
"p.	c #1C262F",
"q.	c #030506",
"                                ",
"                                ",
". + @ # $ %                     ",
"& * = - ; > , ' ) ! ~ { ]       ",
"^ / ( _ : < [ } | 1 2 3 4       ",
"^ 5 6 7 < 7 6 / 8 9 0 a b       ",
"c d e f = = g h i j k l m       ",
"n o p q r s t u v w x y z       ",
"A B C D E F G H I J K L M N O   ",
"P Q R S T U V W X Y Z `  ...+.  ",
"@.#.$.%.&.*.=.-.;.>.,.'.).!.~.  ",
"{.].^./.(._.:.<.[.}.|.1.2.3.    ",
"4.5.6.7.8.9.0.a.b.c.d.e.f.      ",
"  g.h.i.j.k.l.m.l.n.o.p.q.      ",
"                                ",
"                                "};
