/* XPM */
static char * stop_xpm[] = {
"16 16 146 2",
"  	c None",
". 	c #895050",
"+ 	c #D05C5C",
"@ 	c #F66262",
"# 	c #F54F4F",
"$ 	c #F65050",
"% 	c #D15A5A",
"& 	c #8A4545",
"* 	c #BF5C5C",
"= 	c #F45656",
"- 	c #EF5656",
"; 	c #F05959",
"> 	c #F05C5C",
", 	c #F15E5E",
"' 	c #F06161",
") 	c #F26464",
"! 	c #F66464",
"~ 	c #C15151",
"{ 	c #BF5656",
"] 	c #EF6767",
"^ 	c #EF6464",
"/ 	c #F06D6D",
"( 	c #F07070",
"_ 	c #F17373",
": 	c #F27676",
"< 	c #F27474",
"[ 	c #F37B7B",
"} 	c #F57D7D",
"| 	c #C04949",
"1 	c #873737",
"2 	c #F27070",
"3 	c #F07979",
"4 	c #F19292",
"5 	c #F6E9E9",
"6 	c #F28A8A",
"7 	c #F28686",
"8 	c #F38888",
"9 	c #F49393",
"0 	c #F7F0F0",
"a 	c #F6ADAD",
"b 	c #F69595",
"c 	c #F88E8E",
"d 	c #862222",
"e 	c #CA5252",
"f 	c #F18F8F",
"g 	c #F28B8B",
"h 	c #F7FAFA",
"i 	c #F6F6F6",
"j 	c #F6F2F2",
"k 	c #F6A4A4",
"l 	c #F6A7A7",
"m 	c #F7F3F3",
"n 	c #F7F6F6",
"o 	c #F7FBFB",
"p 	c #F7ABAB",
"q 	c #F7B5B5",
"r 	c #CC5454",
"s 	c #F07E7E",
"t 	c #F5A5A5",
"u 	c #F6A9A9",
"v 	c #F7C1C1",
"w 	c #F7F9F9",
"x 	c #F7F2F2",
"y 	c #F0AEAE",
"z 	c #F2B0B0",
"A 	c #F7C8C8",
"B 	c #F39D9D",
"C 	c #F4A2A2",
"D 	c #F7BEBE",
"E 	c #F9C9C9",
"F 	c #EC9797",
"G 	c #E27E7E",
"H 	c #F7F7F7",
"I 	c #D95757",
"J 	c #CF2222",
"K 	c #CF2121",
"L 	c #CE1E1E",
"M 	c #D42C2C",
"N 	c #F5BCBC",
"O 	c #E48B8B",
"P 	c #CB2A2A",
"Q 	c #C91F1F",
"R 	c #CD3030",
"S 	c #F5EBEB",
"T 	c #F4EAEA",
"U 	c #CA2323",
"V 	c #CE2323",
"W 	c #711919",
"X 	c #C72C2C",
"Y 	c #BC1A1A",
"Z 	c #BD1D1D",
"` 	c #C12D2D",
" .	c #F5EDED",
"..	c #F7F8F8",
"+.	c #F8F9F9",
"@.	c #F4ECEC",
"#.	c #BC1D1D",
"$.	c #C21E1E",
"%.	c #A51919",
"&.	c #AF1919",
"*.	c #AC1313",
"=.	c #F6F3F3",
"-.	c #F9FCFC",
";.	c #BE4949",
">.	c #C25757",
",.	c #F9FEFE",
"'.	c #F2E6E6",
").	c #AA0F0F",
"!.	c #A61919",
"~.	c #711414",
"{.	c #A71414",
"].	c #9C0F0F",
"^.	c #CB8989",
"/.	c #FCFFFF",
"(.	c #B24747",
"_.	c #9D1212",
":.	c #9D1111",
"<.	c #B65050",
"[.	c #FDFFFF",
"}.	c #B54E4E",
"|.	c #9D1313",
"1.	c #A61414",
"2.	c #731414",
"3.	c #8C1313",
"4.	c #941111",
"5.	c #8C0C0C",
"6.	c #931C1C",
"7.	c #8E1111",
"8.	c #8E1212",
"9.	c #8C0A0A",
"0.	c #941212",
"a.	c #8D1313",
"b.	c #871111",
"c.	c #8D0D0D",
"d.	c #810D0D",
"e.	c #800D0D",
"f.	c #8C0D0D",
"g.	c #871010",
"h.	c #661010",
"i.	c #850E0E",
"j.	c #890B0B",
"k.	c #820B0B",
"l.	c #880B0B",
"m.	c #860E0E",
"n.	c #671010",
"o.	c #5C1010",
"                                ",
"        . + @ # $ @ % &         ",
"      * = - ; > , ' ) ! ~       ",
"    { ' ] ^ / ( _ : < [ } |     ",
"  1 2 3 4 5 6 7 8 9 0 a b c d   ",
"  e f g h i j k l m n o p q r   ",
"  s t u v w i x x i w y z A B   ",
"  C D E F G w H H H I J K L M   ",
"  N O P Q R S H H T R U U U V W ",
"  X Y Z `  .i ..+.i @.` Z #.$.  ",
"  %.&.*.=.i -.;.>.,.i '.).&.!.  ",
"  ~.{.].^./.(._.:.<.[.}.|.1.2.  ",
"    3.4.5.6.7.8.8.7.9.7.0.a.    ",
"      b.c.d.e.e.e.e.e.f.g.      ",
"        h.i.j.k.k.l.m.n.        ",
"              o.o.              "};
