/* XPM */
static char * warning_xpm[] = {
"16 16 137 2",
"  	c None",
". 	c #999348",
"+ 	c #E1DA64",
"@ 	c #FFFC75",
"# 	c #FFFA66",
"$ 	c #FFFB67",
"% 	c #E2DA62",
"& 	c #9B9540",
"* 	c #D1C95E",
"= 	c #FFF86B",
"- 	c #FEF568",
"; 	c #FEF56B",
"> 	c #FFF86F",
", 	c #FFF971",
"' 	c #FEF571",
") 	c #FEF574",
"! 	c #FFF976",
"~ 	c #D4CB55",
"{ 	c #D2C958",
"] 	c #FFF370",
"^ 	c #FEF374",
"/ 	c #FEF376",
"( 	c #FFFA7D",
"_ 	c #615E2E",
": 	c #524E27",
"< 	c #FFF681",
"[ 	c #FEF483",
"} 	c #FEF485",
"| 	c #FFF587",
"1 	c #D5CB4D",
"2 	c #9B9232",
"3 	c #FFF47B",
"4 	c #FEF181",
"5 	c #FEF284",
"6 	c #FEF187",
"7 	c #FFFF91",
"8 	c #000000",
"9 	c #ECE388",
"0 	c #FEF494",
"a 	c #FEF398",
"b 	c #FEF49A",
"c 	c #FFF794",
"d 	c #9F9421",
"e 	c #E3D456",
"f 	c #FDF192",
"g 	c #FEF193",
"h 	c #FEF297",
"i 	c #FEF299",
"j 	c #FFFFA5",
"k 	c #F1E79C",
"l 	c #FEF4A8",
"m 	c #FDF4AA",
"n 	c #FEF5AD",
"o 	c #FEF5B2",
"p 	c #E6D758",
"q 	c #FFF283",
"r 	c #FEF2A4",
"s 	c #FEF3A8",
"t 	c #FEF3AA",
"u 	c #FDF4AF",
"v 	c #FFFFBF",
"w 	c #0A0A08",
"x 	c #FFF8A5",
"y 	c #FEF19E",
"z 	c #FEF1A2",
"A 	c #FEF3AE",
"B 	c #FEF7C2",
"C 	c #FFF69E",
"D 	c #FFF3A1",
"E 	c #FDF4B9",
"F 	c #FEF5C2",
"G 	c #FDEF97",
"H 	c #FDE768",
"I 	c #FFEA47",
"J 	c #221D06",
"K 	c #FFEB33",
"L 	c #FCDE30",
"M 	c #FCDE2F",
"N 	c #FCDE2C",
"O 	c #FFE339",
"P 	c #FFF6B7",
"Q 	c #FDEA89",
"R 	c #FCDB34",
"S 	c #FCD929",
"T 	c #FCDA2D",
"U 	c #FFE02E",
"V 	c #39310A",
"W 	c #131103",
"X 	c #FFE42F",
"Y 	c #FFDD2E",
"Z 	c #8F8013",
"` 	c #FFD832",
" .	c #FACD22",
"..	c #FACE25",
"+.	c #FFD225",
"@.	c #52440C",
"#.	c #2A2206",
"$.	c #FFD526",
"%.	c #FFD426",
"&.	c #E3B919",
"*.	c #FABF1C",
"=.	c #FBBF1C",
"-.	c #FDC11C",
";.	c #B58A15",
">.	c #A47E13",
",.	c #FFC21C",
"'.	c #E6BB1A",
").	c #A0820E",
"!.	c #FEB816",
"~.	c #FBAE15",
"{.	c #FBAF15",
"].	c #FFB816",
"^.	c #FDB015",
"/.	c #FEB815",
"(.	c #A3840D",
"_.	c #D5A10F",
":.	c #FBA510",
"<.	c #FB9D0F",
"[.	c #FD9F10",
"}.	c #AF6D0B",
"|.	c #A1640A",
"1.	c #FFA110",
"2.	c #FBA410",
"3.	c #D7A20F",
"4.	c #D69B0C",
"5.	c #FD9D0C",
"6.	c #FB900B",
"7.	c #FA8D0C",
"8.	c #FB8D0C",
"9.	c #D89B0C",
"0.	c #A37707",
"a.	c #E59909",
"b.	c #FE9908",
"c.	c #FE9207",
"d.	c #E69A09",
"e.	c #A47807",
"f.	c #956B07",
"                                ",
"        . + @ # $ @ % &         ",
"      * = - ; > , ' ) ! ~       ",
"    { ] ^ / ( _ : < [ } | 1     ",
"  2 3 4 5 6 7 8 8 9 0 a b c d   ",
"  e f g h i j 8 8 k l m n o p   ",
"  q r s t u v w 8 x y z A B C   ",
"  D E F G H I J 8 K L L M N O   ",
"  P Q R S T U V W X T T T T Y Z ",
"  `  .......+.@.#.$.........%.  ",
"  &.*.=.=.=.-.;.>.,.=.=.=.*.'.  ",
"  ).!.~.{.{.].8 8 ^.{.{.~./.(.  ",
"    _.:.<.<.[.}.|.1.<.<.2.3.    ",
"      4.5.6.7.8.8.7.6.5.9.      ",
"        0.a.b.c.c.b.d.e.        ",
"              f.f.              "};
